{"title":"[MommyGotBoobs] - Milfs Sure are Tricky","uid":11156473,"size":274110851,"categoryP":"porn","categoryS":"movie_clips","magnet":"?xt=urn:btih:19b431c694fa22f89f2ba4d9f867a7041b862c46&amp;dn=%5BMommyGotBoobs%5D+-+Milfs+Sure+are+Tricky&amp;tr=udp%3A%2F%2Ftracker.openbittorrent.com%3A80&amp;tr=udp%3A%2F%2Fopen.demonii.com%3A1337&amp;tr=udp%3A%2F%2Ftracker.coppersurfer.tk%3A6969&amp;tr=udp%3A%2F%2Fexodus.desync.com%3A6969","seeders":4,"leechers":5,"uploader":"supertongo","files":1,"time":1412435684,"description":"[MommyGotBoobs] - Milfs Sure are Tricky - Diamond Foxxx\n\n\n:::Media info:::\n\nGeneral\n\nFormat                         : MPEG-4\nFormat profile                 : Base Media\nCodec ID                       : isom\nFile size                      : 261 MiB\nDuration                       : 28mn 13s\nOverall bit rate mode          : Variable\nOverall bit rate               : 1 295 Kbps\nWriting application            : Lavf52.32.0\n\nVideo\nID                             : 1\nFormat                         : AVC\nFormat/Info                    : Advanced Video Codec\nFormat profile                 : &lt;a class=&quot;__cf_email__&quot; href=&quot;/cdn-cgi/l/email-protection&quot; data-cfemail=&quot;a4eccdc3cce4e8978a94&quot;&gt;[email&amp;#160;protected]&lt;/a&gt;&lt;script cf-hash='f9e31' type=&quot;text/javascript&quot;&gt;\n/* &lt;![CDATA[ */!function(){try{var t=&quot;currentScript&quot;in document?document.currentScript:function(){for(var t=document.getElementsByTagName(&quot;script&quot;),e=t.length;e--;)if(t[e].getAttribute(&quot;cf-hash&quot;))return t[e]}();if(t&amp;&amp;t.previousSibling){var e,r,n,i,c=t.previousSibling,a=c.getAttribute(&quot;data-cfemail&quot;);if(a){for(e=&quot;&quot;,r=parseInt(a.substr(0,2),16),n=2;a.length-n;n+=2)i=parseInt(a.substr(n,2),16)^r,e+=String.fromCharCode(i);e=document.createTextNode(e),c.parentNode.replaceChild(e,c)}}}catch(u){}}();/* ]]&gt; */&lt;/script&gt;\nFormat settings, CABAC         : Yes\nFormat settings, ReFrames      : 3 frames\nCodec ID                       : avc1\nCodec ID/Info                  : Advanced Video Coding\nDuration                       : 28mn 13s\nDuration_FirstFrame            : -100ms\nBit rate                       : 1 100 Kbps\nWidth                          : 768 pixels\nHeight                         : 432 pixels\nDisplay aspect ratio           : 16:9\nFrame rate mode                : Variable\nFrame rate                     : 29.970 fps\nMinimum frame rate             : 7.493 fps\nMaximum frame rate             : 29.970 fps\nColor space                    : YUV\nChroma subsampling             : 4:2:0\nBit depth                      : 8 bits\nScan type                      : Progressive\nBits/(Pixel*Frame)             : 0.111\nStream size                    : 222 MiB (85%)\nLanguage                       : English\n\nAudio\nID                             : 2\nFormat                         : AAC\nFormat/Info                    : Advanced Audio Codec\nFormat profile                 : LC\nCodec ID                       : 40\nDuration                       : 28mn 13s\nBit rate mode                  : Variable\nBit rate                       : 128 Kbps\nChannel(s)                     : 2 channels\nChannel positions              : Front: L R\nSampling rate                  : 48.0 KHz\nCompression mode               : Lossy\nStream size                    : 25.8 MiB (10%)\nLanguage                       : English\n\n &lt;a href=&quot;\nhttp://bayimg.com/oAAilaagN&quot; rel=&quot;nofollow&quot; target=&quot;_NEW&quot;&gt;\nhttp://bayimg.com/oAAilaagN&lt;/a&gt;\n","torrent":{"xt":"urn:btih:19b431c694fa22f89f2ba4d9f867a7041b862c46","amp;dn":"%5BMommyGotBoobs%5D+-+Milfs+Sure+are+Tricky","amp;tr":["udp%3A%2F%2Ftracker.openbittorrent.com%3A80","udp%3A%2F%2Fopen.demonii.com%3A1337","udp%3A%2F%2Ftracker.coppersurfer.tk%3A6969","udp%3A%2F%2Fexodus.desync.com%3A6969"],"infoHash":"19b431c694fa22f89f2ba4d9f867a7041b862c46","infoHashBuffer":{"type":"Buffer","data":[25,180,49,198,148,250,34,248,159,43,164,217,248,103,167,4,27,134,44,70]},"announce":[],"urlList":[]}}